<svg width="687.3" height="97.2" viewBox="0 0 687.3 97.2" xmlns="http://www.w3.org/2000/svg"><g id="svgGroup" stroke-linecap="round" fill-rule="evenodd" font-size="9pt" stroke="#ffc26e" stroke-width="0.25mm" fill="#ffc26e" style="stroke:#ffc26e;stroke-width:0.25mm;fill:#ffc26e"><path d="M 406.8 74 L 395 74 L 376 6.3 L 385.4 3.3 L 401.2 63.9 L 416.1 11.3 L 428 11.3 L 442.8 63.9 L 458.5 3.6 L 467.3 6.3 L 448.4 74 L 436.6 74 L 421.8 21.4 L 406.8 74 Z M 200.4 95.2 L 202.4 87.7 A 9.908 9.908 0 0 0 203.565 88.274 Q 204.388 88.619 205.4 88.9 A 13.514 13.514 0 0 0 207.679 89.317 A 17.358 17.358 0 0 0 209.4 89.4 Q 213.6 89.4 216.9 86.7 A 12.003 12.003 0 0 0 218.833 84.639 Q 220.581 82.328 222.241 78.475 A 58.58 58.58 0 0 0 223.2 76.1 L 225.5 70.1 L 220.7 70.1 L 200.4 24.4 L 208.4 20.8 L 227.8 64.1 L 242.9 21.2 L 251.2 24.4 L 232.1 76.6 A 71.728 71.728 0 0 1 230.047 81.686 Q 228.945 84.126 227.778 86.114 A 30.86 30.86 0 0 1 225.8 89.1 A 24.268 24.268 0 0 1 222.922 92.311 Q 221.008 94.079 218.905 95.118 A 14.737 14.737 0 0 1 218.3 95.4 Q 214.2 97.2 209.2 97.2 Q 206.2 97.2 203.95 96.6 Q 201.7 96 200.4 95.2 Z M 49.7 71 L 40.8 75.2 L 32.1 56.2 A 30.586 30.586 0 0 0 29.509 51.626 Q 27.003 48.022 23.8 46.1 Q 19.445 43.487 12.964 43.15 A 37.847 37.847 0 0 0 11 43.1 L 9.5 43.1 L 9.5 74 L 0 74 L 0 4.2 Q 5.3 3.7 10.15 3.45 A 187.94 187.94 0 0 1 16.466 3.235 A 226.267 226.267 0 0 1 20.5 3.2 Q 33.3 3.2 39.75 8.4 A 17.414 17.414 0 0 1 44.38 13.934 Q 46.2 17.444 46.2 21.8 A 19.88 19.88 0 0 1 45.549 27.02 A 14.672 14.672 0 0 1 41.85 33.55 Q 37.5 38 29.3 40.2 A 23.656 23.656 0 0 1 32.729 42.063 A 20.427 20.427 0 0 1 34.1 43.05 Q 36.069 44.597 37.905 47.11 A 29.29 29.29 0 0 1 38.15 47.45 Q 40.1 50.2 42.1 54.6 L 49.7 71 Z M 102.8 51.7 L 66.4 51.7 A 24.088 24.088 0 0 0 67.539 56.725 Q 68.875 60.538 71.5 63.1 Q 75.7 67.2 82.6 67.2 Q 87.1 67.2 90.7 66.25 Q 94.3 65.3 97.6 63.8 L 99.7 71.5 A 40.77 40.77 0 0 1 95.365 73.126 A 51.863 51.863 0 0 1 91.6 74.15 A 38.914 38.914 0 0 1 86.508 74.969 A 52.025 52.025 0 0 1 81.5 75.2 A 28.318 28.318 0 0 1 73.754 74.195 A 21.108 21.108 0 0 1 63.75 68.05 A 23.521 23.521 0 0 1 58.545 58.51 Q 57.2 53.845 57.2 48 A 35.359 35.359 0 0 1 58.033 40.178 A 28.84 28.84 0 0 1 60.15 34.05 A 24.642 24.642 0 0 1 65.166 26.968 A 22.887 22.887 0 0 1 68.4 24.35 A 21.048 21.048 0 0 1 78.659 20.878 A 26.205 26.205 0 0 1 80.7 20.8 Q 88.2 20.8 93.15 24.05 Q 98.1 27.3 100.6 32.8 A 28.185 28.185 0 0 1 103.026 42.664 A 33.434 33.434 0 0 1 103.1 44.9 A 75.204 75.204 0 0 1 102.809 51.597 A 69.426 69.426 0 0 1 102.8 51.7 Z M 300.3 51.7 L 263.9 51.7 A 24.088 24.088 0 0 0 265.039 56.725 Q 266.375 60.538 269 63.1 Q 273.2 67.2 280.1 67.2 Q 284.6 67.2 288.2 66.25 Q 291.8 65.3 295.1 63.8 L 297.2 71.5 A 40.77 40.77 0 0 1 292.865 73.126 A 51.863 51.863 0 0 1 289.1 74.15 A 38.914 38.914 0 0 1 284.008 74.969 A 52.025 52.025 0 0 1 279 75.2 A 28.318 28.318 0 0 1 271.254 74.195 A 21.108 21.108 0 0 1 261.25 68.05 A 23.521 23.521 0 0 1 256.045 58.51 Q 254.7 53.845 254.7 48 A 35.359 35.359 0 0 1 255.533 40.178 A 28.84 28.84 0 0 1 257.65 34.05 A 24.642 24.642 0 0 1 262.666 26.968 A 22.887 22.887 0 0 1 265.9 24.35 A 21.048 21.048 0 0 1 276.159 20.878 A 26.205 26.205 0 0 1 278.2 20.8 Q 285.7 20.8 290.65 24.05 Q 295.6 27.3 298.1 32.8 A 28.185 28.185 0 0 1 300.526 42.664 A 33.434 33.434 0 0 1 300.6 44.9 A 75.204 75.204 0 0 1 300.309 51.597 A 69.426 69.426 0 0 1 300.3 51.7 Z M 644.3 51.7 L 607.9 51.7 A 24.088 24.088 0 0 0 609.039 56.725 Q 610.375 60.538 613 63.1 Q 617.2 67.2 624.1 67.2 Q 628.6 67.2 632.2 66.25 Q 635.8 65.3 639.1 63.8 L 641.2 71.5 A 40.77 40.77 0 0 1 636.865 73.126 A 51.863 51.863 0 0 1 633.1 74.15 A 38.914 38.914 0 0 1 628.008 74.969 A 52.025 52.025 0 0 1 623 75.2 A 28.318 28.318 0 0 1 615.254 74.195 A 21.108 21.108 0 0 1 605.25 68.05 A 23.521 23.521 0 0 1 600.045 58.51 Q 598.7 53.845 598.7 48 A 35.359 35.359 0 0 1 599.533 40.178 A 28.84 28.84 0 0 1 601.65 34.05 A 24.642 24.642 0 0 1 606.666 26.968 A 22.887 22.887 0 0 1 609.9 24.35 A 21.048 21.048 0 0 1 620.159 20.878 A 26.205 26.205 0 0 1 622.2 20.8 Q 629.7 20.8 634.65 24.05 Q 639.6 27.3 642.1 32.8 A 28.185 28.185 0 0 1 644.526 42.664 A 33.434 33.434 0 0 1 644.6 44.9 A 75.204 75.204 0 0 1 644.309 51.597 A 69.426 69.426 0 0 1 644.3 51.7 Z M 658.6 56.1 L 658.6 31.7 L 649.6 31.7 L 649.6 23.9 L 658.8 23.9 L 660.7 7.5 L 667.6 7.5 L 667.6 23.9 L 682 23.9 L 682 31.7 L 667.6 31.7 L 667.6 56.8 A 21.559 21.559 0 0 0 667.768 59.596 Q 668.241 63.202 670.05 64.9 Q 672.5 67.2 675.9 67.2 Q 678.4 67.2 680.65 66.4 Q 682.9 65.6 684.8 64.5 L 687.3 71.7 A 18.546 18.546 0 0 1 685.682 72.556 Q 684.88 72.935 683.934 73.308 A 43.365 43.365 0 0 1 681.9 74.05 Q 678.5 75.2 674.8 75.2 Q 667.3 75.2 662.95 70.25 A 16.116 16.116 0 0 1 659.722 64.348 Q 658.959 61.917 658.715 58.98 A 34.777 34.777 0 0 1 658.6 56.1 Z M 183.8 26.2 L 183.8 22 L 192 22 L 192 61.4 A 12.15 12.15 0 0 0 192.102 63.036 Q 192.434 65.47 193.85 66.35 Q 195.7 67.5 197.9 67.5 L 196 74.5 A 17.722 17.722 0 0 1 191.735 74.028 Q 186.098 72.628 184.503 67.08 A 13.59 13.59 0 0 1 184.4 66.7 A 21.307 21.307 0 0 1 181.29 70.126 A 28.498 28.498 0 0 1 178.15 72.55 Q 174.2 75.2 168.1 75.2 Q 161.6 75.2 156.3 71.9 A 22.947 22.947 0 0 1 148.887 64.373 A 27.923 27.923 0 0 1 147.85 62.55 A 27.228 27.228 0 0 1 145.22 54.608 A 36.644 36.644 0 0 1 144.7 48.3 A 33.142 33.142 0 0 1 145.697 40.031 A 27.968 27.968 0 0 1 147.85 34.3 Q 151 28.1 156.55 24.45 A 22.297 22.297 0 0 1 167.745 20.844 A 27.388 27.388 0 0 1 169.3 20.8 A 22.584 22.584 0 0 1 174.094 21.29 A 18.703 18.703 0 0 1 177.45 22.35 A 26.002 26.002 0 0 1 181.737 24.644 A 22.103 22.103 0 0 1 183.8 26.2 Z M 509.4 26.2 L 509.4 22 L 517.6 22 L 517.6 61.4 A 12.15 12.15 0 0 0 517.702 63.036 Q 518.034 65.47 519.45 66.35 Q 521.3 67.5 523.5 67.5 L 521.6 74.5 A 17.722 17.722 0 0 1 517.335 74.028 Q 511.698 72.628 510.103 67.08 A 13.59 13.59 0 0 1 510 66.7 A 21.307 21.307 0 0 1 506.89 70.126 A 28.498 28.498 0 0 1 503.75 72.55 Q 499.8 75.2 493.7 75.2 Q 487.2 75.2 481.9 71.9 A 22.947 22.947 0 0 1 474.487 64.373 A 27.923 27.923 0 0 1 473.45 62.55 A 27.228 27.228 0 0 1 470.82 54.608 A 36.644 36.644 0 0 1 470.3 48.3 A 33.142 33.142 0 0 1 471.297 40.031 A 27.968 27.968 0 0 1 473.45 34.3 Q 476.6 28.1 482.15 24.45 A 22.297 22.297 0 0 1 493.345 20.844 A 27.388 27.388 0 0 1 494.9 20.8 A 22.584 22.584 0 0 1 499.694 21.29 A 18.703 18.703 0 0 1 503.05 22.35 A 26.002 26.002 0 0 1 507.337 24.644 A 22.103 22.103 0 0 1 509.4 26.2 Z M 114.6 57.7 L 114.6 0 L 123.6 0 L 123.6 56.8 A 20.644 20.644 0 0 0 123.788 59.688 Q 124.25 62.952 125.85 64.8 A 7.363 7.363 0 0 0 130.434 67.276 A 10.724 10.724 0 0 0 132.1 67.4 Q 134 67.4 135.85 66.95 A 22.192 22.192 0 0 0 137.313 66.544 Q 138.248 66.247 139 65.9 L 141.2 73.2 Q 139.801 73.822 137.888 74.323 A 34.978 34.978 0 0 1 136.75 74.6 A 23.816 23.816 0 0 1 133.595 75.085 A 30.514 30.514 0 0 1 130.9 75.2 A 20.862 20.862 0 0 1 126.01 74.646 A 17.544 17.544 0 0 1 122.6 73.45 A 12.683 12.683 0 0 1 117.275 68.685 A 15.856 15.856 0 0 1 116.75 67.8 Q 115.016 64.654 114.68 60.012 A 32.105 32.105 0 0 1 114.6 57.7 Z M 535 57.7 L 535 0 L 544 0 L 544 56.8 A 20.644 20.644 0 0 0 544.188 59.688 Q 544.65 62.952 546.25 64.8 A 7.363 7.363 0 0 0 550.834 67.276 A 10.724 10.724 0 0 0 552.5 67.4 Q 554.4 67.4 556.25 66.95 A 22.192 22.192 0 0 0 557.713 66.544 Q 558.648 66.247 559.4 65.9 L 561.6 73.2 Q 560.201 73.822 558.288 74.323 A 34.978 34.978 0 0 1 557.15 74.6 A 23.816 23.816 0 0 1 553.995 75.085 A 30.514 30.514 0 0 1 551.3 75.2 A 20.862 20.862 0 0 1 546.41 74.646 A 17.544 17.544 0 0 1 543 73.45 A 12.683 12.683 0 0 1 537.675 68.685 A 15.856 15.856 0 0 1 537.15 67.8 Q 535.416 64.654 535.08 60.012 A 32.105 32.105 0 0 1 535 57.7 Z M 568.6 57.7 L 568.6 0 L 577.6 0 L 577.6 56.8 A 20.644 20.644 0 0 0 577.788 59.688 Q 578.25 62.952 579.85 64.8 A 7.363 7.363 0 0 0 584.434 67.276 A 10.724 10.724 0 0 0 586.1 67.4 Q 588 67.4 589.85 66.95 A 22.192 22.192 0 0 0 591.313 66.544 Q 592.248 66.247 593 65.9 L 595.2 73.2 Q 593.801 73.822 591.888 74.323 A 34.978 34.978 0 0 1 590.75 74.6 A 23.816 23.816 0 0 1 587.595 75.085 A 30.514 30.514 0 0 1 584.9 75.2 A 20.862 20.862 0 0 1 580.01 74.646 A 17.544 17.544 0 0 1 576.6 73.45 A 12.683 12.683 0 0 1 571.275 68.685 A 15.856 15.856 0 0 1 570.75 67.8 Q 569.016 64.654 568.68 60.012 A 32.105 32.105 0 0 1 568.6 57.7 Z M 321.6 74 L 312.6 74 L 312.6 22 L 321.3 22 L 321.3 33.3 Q 322.6 30 324.8 27.15 Q 327 24.3 330.3 22.55 A 14.817 14.817 0 0 1 334.98 21.026 A 19.459 19.459 0 0 1 338 20.8 Q 339.5 20.8 341 20.95 A 18.972 18.972 0 0 1 342.055 21.084 Q 342.555 21.162 342.982 21.262 A 8.817 8.817 0 0 1 343.5 21.4 L 340.8 30.7 A 9.763 9.763 0 0 0 338.655 30.088 Q 337.559 29.9 336.3 29.9 A 12.958 12.958 0 0 0 329.67 31.746 A 15.609 15.609 0 0 0 329.25 32 Q 325.922 34.086 323.778 38.442 A 22.927 22.927 0 0 0 323.75 38.5 Q 321.987 42.107 321.67 47.328 A 39.09 39.09 0 0 0 321.6 49.7 L 321.6 74 Z M 183 60.7 L 183 32.8 Q 180.3 30.9 177.05 29.75 Q 173.8 28.6 170.2 28.6 A 15.924 15.924 0 0 0 165.229 29.354 A 14.024 14.024 0 0 0 161.75 31.05 A 16.301 16.301 0 0 0 156.731 36.474 A 19.962 19.962 0 0 0 156 37.85 A 20.663 20.663 0 0 0 154.247 43.527 A 27.678 27.678 0 0 0 153.9 48 Q 153.9 53.6 156 57.95 A 17.602 17.602 0 0 0 159.106 62.496 A 15.697 15.697 0 0 0 161.8 64.75 Q 165.5 67.2 170.1 67.2 Q 173.9 67.2 177.3 65.35 Q 180.7 63.5 183 60.7 Z M 508.6 60.7 L 508.6 32.8 Q 505.9 30.9 502.65 29.75 Q 499.4 28.6 495.8 28.6 A 15.924 15.924 0 0 0 490.829 29.354 A 14.024 14.024 0 0 0 487.35 31.05 A 16.301 16.301 0 0 0 482.331 36.474 A 19.962 19.962 0 0 0 481.6 37.85 A 20.663 20.663 0 0 0 479.847 43.527 A 27.678 27.678 0 0 0 479.5 48 Q 479.5 53.6 481.6 57.95 A 17.602 17.602 0 0 0 484.706 62.496 A 15.697 15.697 0 0 0 487.4 64.75 Q 491.1 67.2 495.7 67.2 Q 499.5 67.2 502.9 65.35 Q 506.3 63.5 508.6 60.7 Z M 9.5 11.6 L 9.5 35.1 L 20.5 35.1 A 26.489 26.489 0 0 0 25.423 34.669 Q 29.352 33.925 32.2 31.9 Q 36.7 28.7 36.7 22.7 A 9.811 9.811 0 0 0 33.427 15.236 A 13.272 13.272 0 0 0 32.5 14.45 A 13.923 13.923 0 0 0 28.136 12.228 Q 26.207 11.618 23.877 11.37 A 31.944 31.944 0 0 0 20.5 11.2 Q 17.326 11.2 14.762 11.287 A 118.974 118.974 0 0 0 14.4 11.3 Q 11.7 11.4 9.5 11.6 Z M 66.3 44.4 L 94.8 44.4 A 24.355 24.355 0 0 0 94.396 39.815 Q 93.9 37.231 92.796 35.207 A 12.422 12.422 0 0 0 91 32.7 A 12.488 12.488 0 0 0 84.039 28.924 A 18.395 18.395 0 0 0 80.5 28.6 A 13.58 13.58 0 0 0 75.388 29.535 A 12.524 12.524 0 0 0 70.9 32.65 Q 67.1 36.7 66.3 44.4 Z M 263.8 44.4 L 292.3 44.4 A 24.355 24.355 0 0 0 291.896 39.815 Q 291.4 37.231 290.296 35.207 A 12.422 12.422 0 0 0 288.5 32.7 A 12.488 12.488 0 0 0 281.539 28.924 A 18.395 18.395 0 0 0 278 28.6 A 13.58 13.58 0 0 0 272.888 29.535 A 12.524 12.524 0 0 0 268.4 32.65 Q 264.6 36.7 263.8 44.4 Z M 607.8 44.4 L 636.3 44.4 A 24.355 24.355 0 0 0 635.896 39.815 Q 635.4 37.231 634.296 35.207 A 12.422 12.422 0 0 0 632.5 32.7 A 12.488 12.488 0 0 0 625.539 28.924 A 18.395 18.395 0 0 0 622 28.6 A 13.58 13.58 0 0 0 616.888 29.535 A 12.524 12.524 0 0 0 612.4 32.65 Q 608.6 36.7 607.8 44.4 Z" vector-effect="non-scaling-stroke"/></g></svg>